<svg xmlns="http://www.w3.org/2000/svg" width="920" height="600" viewBox="0 0 920 600">
<rect width="100%" height="100%" fill="#ffffff"/>
<text x="460.0" y="36" text-anchor="middle" font-family="Arial" font-size="24" font-weight="700" fill="#222">Response Time Box Plot: 100 vs 1000 Threads</text>
<text x="24" y="300.0" transform="rotate(-90 24 300.0)" text-anchor="middle" font-family="Arial" font-size="14" fill="#444">Elapsed time, ms</text>
<line x1="100" y1="505.0" x2="870" y2="505.0" stroke="#e5e7eb" stroke-width="1"/>
<text x="88" y="510.0" text-anchor="end" font-family="Arial" font-size="13" fill="#555">922</text>
<line x1="100" y1="418.0" x2="870" y2="418.0" stroke="#e5e7eb" stroke-width="1"/>
<text x="88" y="423.0" text-anchor="end" font-family="Arial" font-size="13" fill="#555">1143</text>
<line x1="100" y1="331.0" x2="870" y2="331.0" stroke="#e5e7eb" stroke-width="1"/>
<text x="88" y="336.0" text-anchor="end" font-family="Arial" font-size="13" fill="#555">1364</text>
<line x1="100" y1="244.0" x2="870" y2="244.0" stroke="#e5e7eb" stroke-width="1"/>
<text x="88" y="249.0" text-anchor="end" font-family="Arial" font-size="13" fill="#555">1585</text>
<line x1="100" y1="157.0" x2="870" y2="157.0" stroke="#e5e7eb" stroke-width="1"/>
<text x="88" y="162.0" text-anchor="end" font-family="Arial" font-size="13" fill="#555">1806</text>
<line x1="100" y1="70.0" x2="870" y2="70.0" stroke="#e5e7eb" stroke-width="1"/>
<text x="88" y="75.0" text-anchor="end" font-family="Arial" font-size="13" fill="#555">2027</text>
<line x1="100" y1="70" x2="100" y2="505" stroke="#333"/>
<line x1="100" y1="505" x2="870" y2="505" stroke="#333"/>
<line x1="292.5" y1="465.2" x2="292.5" y2="468.8" stroke="#1f77b4" stroke-width="3"/>
<line x1="292.5" y1="471.1" x2="292.5" y2="473.1" stroke="#1f77b4" stroke-width="3"/>
<line x1="249.2" y1="465.2" x2="335.8" y2="465.2" stroke="#1f77b4" stroke-width="3"/>
<line x1="249.2" y1="473.1" x2="335.8" y2="473.1" stroke="#1f77b4" stroke-width="3"/>
<rect x="227.5" y="468.8" width="130" height="2.4" fill="#1f77b4" fill-opacity="0.18" stroke="#1f77b4" stroke-width="3"/>
<line x1="227.5" y1="470.0" x2="357.5" y2="470.0" stroke="#1f77b4" stroke-width="4"/>
<circle cx="276.5" cy="464.8" r="3" fill="#1f77b4" fill-opacity="0.45"/>
<circle cx="280.5" cy="464.8" r="3" fill="#1f77b4" fill-opacity="0.45"/>
<circle cx="284.5" cy="464.1" r="3" fill="#1f77b4" fill-opacity="0.45"/>
<circle cx="288.5" cy="464.1" r="3" fill="#1f77b4" fill-opacity="0.45"/>
<circle cx="292.5" cy="463.7" r="3" fill="#1f77b4" fill-opacity="0.45"/>
<circle cx="296.5" cy="463.7" r="3" fill="#1f77b4" fill-opacity="0.45"/>
<circle cx="300.5" cy="462.5" r="3" fill="#1f77b4" fill-opacity="0.45"/>
<circle cx="304.5" cy="462.1" r="3" fill="#1f77b4" fill-opacity="0.45"/>
<circle cx="308.5" cy="461.3" r="3" fill="#1f77b4" fill-opacity="0.45"/>
<circle cx="276.5" cy="461.3" r="3" fill="#1f77b4" fill-opacity="0.45"/>
<circle cx="280.5" cy="460.9" r="3" fill="#1f77b4" fill-opacity="0.45"/>
<circle cx="284.5" cy="457.4" r="3" fill="#1f77b4" fill-opacity="0.45"/>
<circle cx="288.5" cy="450.3" r="3" fill="#1f77b4" fill-opacity="0.45"/>
<circle cx="292.5" cy="434.1" r="3" fill="#1f77b4" fill-opacity="0.45"/>
<circle cx="296.5" cy="401.9" r="3" fill="#1f77b4" fill-opacity="0.45"/>
<text x="292.5" y="537" text-anchor="middle" font-family="Arial" font-size="15" fill="#333">100 threads</text>
<text x="292.5" y="559" text-anchor="middle" font-family="Arial" font-size="12" fill="#666">n=400, outliers=15</text>
<text x="292.5" y="58" text-anchor="middle" font-family="Arial" font-size="13" fill="#1f77b4">median 1011 | q1 1008 | q3 1014</text>
<line x1="677.5" y1="468.4" x2="677.5" y2="470.8" stroke="#d62728" stroke-width="3"/>
<line x1="677.5" y1="472.3" x2="677.5" y2="473.5" stroke="#d62728" stroke-width="3"/>
<line x1="634.2" y1="468.4" x2="720.8" y2="468.4" stroke="#d62728" stroke-width="3"/>
<line x1="634.2" y1="473.5" x2="720.8" y2="473.5" stroke="#d62728" stroke-width="3"/>
<rect x="612.5" y="470.8" width="130" height="1.6" fill="#d62728" fill-opacity="0.18" stroke="#d62728" stroke-width="3"/>
<line x1="612.5" y1="471.9" x2="742.5" y2="471.9" stroke="#d62728" stroke-width="4"/>
<circle cx="661.5" cy="468.0" r="3" fill="#d62728" fill-opacity="0.45"/>
<circle cx="665.5" cy="468.0" r="3" fill="#d62728" fill-opacity="0.45"/>
<circle cx="669.5" cy="468.0" r="3" fill="#d62728" fill-opacity="0.45"/>
<circle cx="673.5" cy="468.0" r="3" fill="#d62728" fill-opacity="0.45"/>
<circle cx="677.5" cy="468.0" r="3" fill="#d62728" fill-opacity="0.45"/>
<circle cx="681.5" cy="468.0" r="3" fill="#d62728" fill-opacity="0.45"/>
<circle cx="685.5" cy="468.0" r="3" fill="#d62728" fill-opacity="0.45"/>
<circle cx="689.5" cy="468.0" r="3" fill="#d62728" fill-opacity="0.45"/>
<circle cx="693.5" cy="468.0" r="3" fill="#d62728" fill-opacity="0.45"/>
<circle cx="661.5" cy="468.0" r="3" fill="#d62728" fill-opacity="0.45"/>
<circle cx="665.5" cy="468.0" r="3" fill="#d62728" fill-opacity="0.45"/>
<circle cx="669.5" cy="468.0" r="3" fill="#d62728" fill-opacity="0.45"/>
<circle cx="673.5" cy="468.0" r="3" fill="#d62728" fill-opacity="0.45"/>
<circle cx="677.5" cy="468.0" r="3" fill="#d62728" fill-opacity="0.45"/>
<circle cx="681.5" cy="467.6" r="3" fill="#d62728" fill-opacity="0.45"/>
<circle cx="685.5" cy="467.6" r="3" fill="#d62728" fill-opacity="0.45"/>
<circle cx="689.5" cy="467.6" r="3" fill="#d62728" fill-opacity="0.45"/>
<circle cx="693.5" cy="467.6" r="3" fill="#d62728" fill-opacity="0.45"/>
<circle cx="661.5" cy="467.6" r="3" fill="#d62728" fill-opacity="0.45"/>
<circle cx="665.5" cy="467.6" r="3" fill="#d62728" fill-opacity="0.45"/>
<circle cx="669.5" cy="467.6" r="3" fill="#d62728" fill-opacity="0.45"/>
<circle cx="673.5" cy="467.6" r="3" fill="#d62728" fill-opacity="0.45"/>
<circle cx="677.5" cy="467.6" r="3" fill="#d62728" fill-opacity="0.45"/>
<circle cx="681.5" cy="467.6" r="3" fill="#d62728" fill-opacity="0.45"/>
<circle cx="685.5" cy="467.6" r="3" fill="#d62728" fill-opacity="0.45"/>
<circle cx="689.5" cy="467.6" r="3" fill="#d62728" fill-opacity="0.45"/>
<circle cx="693.5" cy="467.6" r="3" fill="#d62728" fill-opacity="0.45"/>
<circle cx="661.5" cy="467.6" r="3" fill="#d62728" fill-opacity="0.45"/>
<circle cx="665.5" cy="467.6" r="3" fill="#d62728" fill-opacity="0.45"/>
<circle cx="669.5" cy="467.6" r="3" fill="#d62728" fill-opacity="0.45"/>
<circle cx="673.5" cy="467.6" r="3" fill="#d62728" fill-opacity="0.45"/>
<circle cx="677.5" cy="467.2" r="3" fill="#d62728" fill-opacity="0.45"/>
<circle cx="681.5" cy="467.2" r="3" fill="#d62728" fill-opacity="0.45"/>
<circle cx="685.5" cy="467.2" r="3" fill="#d62728" fill-opacity="0.45"/>
<circle cx="689.5" cy="467.2" r="3" fill="#d62728" fill-opacity="0.45"/>
<circle cx="693.5" cy="467.2" r="3" fill="#d62728" fill-opacity="0.45"/>
<circle cx="661.5" cy="467.2" r="3" fill="#d62728" fill-opacity="0.45"/>
<circle cx="665.5" cy="467.2" r="3" fill="#d62728" fill-opacity="0.45"/>
<circle cx="669.5" cy="467.2" r="3" fill="#d62728" fill-opacity="0.45"/>
<circle cx="673.5" cy="467.2" r="3" fill="#d62728" fill-opacity="0.45"/>
<circle cx="677.5" cy="467.2" r="3" fill="#d62728" fill-opacity="0.45"/>
<circle cx="681.5" cy="467.2" r="3" fill="#d62728" fill-opacity="0.45"/>
<circle cx="685.5" cy="467.2" r="3" fill="#d62728" fill-opacity="0.45"/>
<circle cx="689.5" cy="467.2" r="3" fill="#d62728" fill-opacity="0.45"/>
<circle cx="693.5" cy="467.2" r="3" fill="#d62728" fill-opacity="0.45"/>
<circle cx="661.5" cy="467.2" r="3" fill="#d62728" fill-opacity="0.45"/>
<circle cx="665.5" cy="467.2" r="3" fill="#d62728" fill-opacity="0.45"/>
<circle cx="669.5" cy="467.2" r="3" fill="#d62728" fill-opacity="0.45"/>
<circle cx="673.5" cy="467.2" r="3" fill="#d62728" fill-opacity="0.45"/>
<circle cx="677.5" cy="466.8" r="3" fill="#d62728" fill-opacity="0.45"/>
<circle cx="681.5" cy="466.8" r="3" fill="#d62728" fill-opacity="0.45"/>
<circle cx="685.5" cy="466.8" r="3" fill="#d62728" fill-opacity="0.45"/>
<circle cx="689.5" cy="466.8" r="3" fill="#d62728" fill-opacity="0.45"/>
<circle cx="693.5" cy="466.8" r="3" fill="#d62728" fill-opacity="0.45"/>
<circle cx="661.5" cy="466.8" r="3" fill="#d62728" fill-opacity="0.45"/>
<circle cx="665.5" cy="466.8" r="3" fill="#d62728" fill-opacity="0.45"/>
<circle cx="669.5" cy="466.8" r="3" fill="#d62728" fill-opacity="0.45"/>
<circle cx="673.5" cy="466.8" r="3" fill="#d62728" fill-opacity="0.45"/>
<circle cx="677.5" cy="466.8" r="3" fill="#d62728" fill-opacity="0.45"/>
<circle cx="681.5" cy="466.8" r="3" fill="#d62728" fill-opacity="0.45"/>
<circle cx="685.5" cy="466.8" r="3" fill="#d62728" fill-opacity="0.45"/>
<circle cx="689.5" cy="466.4" r="3" fill="#d62728" fill-opacity="0.45"/>
<circle cx="693.5" cy="466.4" r="3" fill="#d62728" fill-opacity="0.45"/>
<circle cx="661.5" cy="466.4" r="3" fill="#d62728" fill-opacity="0.45"/>
<circle cx="665.5" cy="466.4" r="3" fill="#d62728" fill-opacity="0.45"/>
<circle cx="669.5" cy="466.4" r="3" fill="#d62728" fill-opacity="0.45"/>
<circle cx="673.5" cy="466.4" r="3" fill="#d62728" fill-opacity="0.45"/>
<circle cx="677.5" cy="466.4" r="3" fill="#d62728" fill-opacity="0.45"/>
<circle cx="681.5" cy="466.4" r="3" fill="#d62728" fill-opacity="0.45"/>
<circle cx="685.5" cy="466.4" r="3" fill="#d62728" fill-opacity="0.45"/>
<circle cx="689.5" cy="466.4" r="3" fill="#d62728" fill-opacity="0.45"/>
<circle cx="693.5" cy="466.4" r="3" fill="#d62728" fill-opacity="0.45"/>
<circle cx="661.5" cy="466.4" r="3" fill="#d62728" fill-opacity="0.45"/>
<circle cx="665.5" cy="466.0" r="3" fill="#d62728" fill-opacity="0.45"/>
<circle cx="669.5" cy="466.0" r="3" fill="#d62728" fill-opacity="0.45"/>
<circle cx="673.5" cy="466.0" r="3" fill="#d62728" fill-opacity="0.45"/>
<circle cx="677.5" cy="466.0" r="3" fill="#d62728" fill-opacity="0.45"/>
<circle cx="681.5" cy="466.0" r="3" fill="#d62728" fill-opacity="0.45"/>
<circle cx="685.5" cy="466.0" r="3" fill="#d62728" fill-opacity="0.45"/>
<circle cx="689.5" cy="466.0" r="3" fill="#d62728" fill-opacity="0.45"/>
<circle cx="693.5" cy="466.0" r="3" fill="#d62728" fill-opacity="0.45"/>
<circle cx="661.5" cy="466.0" r="3" fill="#d62728" fill-opacity="0.45"/>
<circle cx="665.5" cy="466.0" r="3" fill="#d62728" fill-opacity="0.45"/>
<circle cx="669.5" cy="466.0" r="3" fill="#d62728" fill-opacity="0.45"/>
<circle cx="673.5" cy="466.0" r="3" fill="#d62728" fill-opacity="0.45"/>
<circle cx="677.5" cy="466.0" r="3" fill="#d62728" fill-opacity="0.45"/>
<circle cx="681.5" cy="466.0" r="3" fill="#d62728" fill-opacity="0.45"/>
<circle cx="685.5" cy="466.0" r="3" fill="#d62728" fill-opacity="0.45"/>
<circle cx="689.5" cy="466.0" r="3" fill="#d62728" fill-opacity="0.45"/>
<circle cx="693.5" cy="466.0" r="3" fill="#d62728" fill-opacity="0.45"/>
<circle cx="661.5" cy="465.6" r="3" fill="#d62728" fill-opacity="0.45"/>
<circle cx="665.5" cy="465.6" r="3" fill="#d62728" fill-opacity="0.45"/>
<circle cx="669.5" cy="465.6" r="3" fill="#d62728" fill-opacity="0.45"/>
<circle cx="673.5" cy="465.6" r="3" fill="#d62728" fill-opacity="0.45"/>
<circle cx="677.5" cy="465.6" r="3" fill="#d62728" fill-opacity="0.45"/>
<circle cx="681.5" cy="465.6" r="3" fill="#d62728" fill-opacity="0.45"/>
<circle cx="685.5" cy="465.6" r="3" fill="#d62728" fill-opacity="0.45"/>
<circle cx="689.5" cy="465.2" r="3" fill="#d62728" fill-opacity="0.45"/>
<circle cx="693.5" cy="465.2" r="3" fill="#d62728" fill-opacity="0.45"/>
<circle cx="661.5" cy="465.2" r="3" fill="#d62728" fill-opacity="0.45"/>
<circle cx="665.5" cy="465.2" r="3" fill="#d62728" fill-opacity="0.45"/>
<circle cx="669.5" cy="465.2" r="3" fill="#d62728" fill-opacity="0.45"/>
<circle cx="673.5" cy="465.2" r="3" fill="#d62728" fill-opacity="0.45"/>
<circle cx="677.5" cy="465.2" r="3" fill="#d62728" fill-opacity="0.45"/>
<circle cx="681.5" cy="465.2" r="3" fill="#d62728" fill-opacity="0.45"/>
<circle cx="685.5" cy="465.2" r="3" fill="#d62728" fill-opacity="0.45"/>
<circle cx="689.5" cy="464.8" r="3" fill="#d62728" fill-opacity="0.45"/>
<circle cx="693.5" cy="464.8" r="3" fill="#d62728" fill-opacity="0.45"/>
<circle cx="661.5" cy="464.8" r="3" fill="#d62728" fill-opacity="0.45"/>
<circle cx="665.5" cy="464.8" r="3" fill="#d62728" fill-opacity="0.45"/>
<circle cx="669.5" cy="464.8" r="3" fill="#d62728" fill-opacity="0.45"/>
<circle cx="673.5" cy="464.8" r="3" fill="#d62728" fill-opacity="0.45"/>
<circle cx="677.5" cy="464.8" r="3" fill="#d62728" fill-opacity="0.45"/>
<circle cx="681.5" cy="464.8" r="3" fill="#d62728" fill-opacity="0.45"/>
<circle cx="685.5" cy="464.5" r="3" fill="#d62728" fill-opacity="0.45"/>
<circle cx="689.5" cy="464.5" r="3" fill="#d62728" fill-opacity="0.45"/>
<circle cx="693.5" cy="464.5" r="3" fill="#d62728" fill-opacity="0.45"/>
<circle cx="661.5" cy="464.5" r="3" fill="#d62728" fill-opacity="0.45"/>
<circle cx="665.5" cy="464.5" r="3" fill="#d62728" fill-opacity="0.45"/>
<circle cx="669.5" cy="464.5" r="3" fill="#d62728" fill-opacity="0.45"/>
<text x="677.5" y="537" text-anchor="middle" font-family="Arial" font-size="15" fill="#333">1000 threads</text>
<text x="677.5" y="559" text-anchor="middle" font-family="Arial" font-size="12" fill="#666">n=4000, outliers=637</text>
<text x="677.5" y="58" text-anchor="middle" font-family="Arial" font-size="13" fill="#d62728">median 1006 | q1 1005 | q3 1009</text>
</svg>