<svg xmlns="http://www.w3.org/2000/svg" width="900" height="560" viewBox="0 0 900 560">
<rect width="100%" height="100%" fill="#ffffff"/>
<text x="450.0" y="34" text-anchor="middle" font-family="Arial" font-size="24" font-weight="700" fill="#222">Average Response Time: 100 vs 1000 Threads</text>
<text x="24" y="280.0" transform="rotate(-90 24 280.0)" text-anchor="middle" font-family="Arial" font-size="14" fill="#444">Milliseconds</text>
<line x1="95" y1="470.0" x2="860" y2="470.0" stroke="#e5e7eb" stroke-width="1"/>
<text x="83" y="475.0" text-anchor="end" font-family="Arial" font-size="13" fill="#555">0</text>
<line x1="95" y1="390.0" x2="860" y2="390.0" stroke="#e5e7eb" stroke-width="1"/>
<text x="83" y="395.0" text-anchor="end" font-family="Arial" font-size="13" fill="#555">243</text>
<line x1="95" y1="310.0" x2="860" y2="310.0" stroke="#e5e7eb" stroke-width="1"/>
<text x="83" y="315.0" text-anchor="end" font-family="Arial" font-size="13" fill="#555">487</text>
<line x1="95" y1="230.0" x2="860" y2="230.0" stroke="#e5e7eb" stroke-width="1"/>
<text x="83" y="235.0" text-anchor="end" font-family="Arial" font-size="13" fill="#555">730</text>
<line x1="95" y1="150.0" x2="860" y2="150.0" stroke="#e5e7eb" stroke-width="1"/>
<text x="83" y="155.0" text-anchor="end" font-family="Arial" font-size="13" fill="#555">973</text>
<line x1="95" y1="70.0" x2="860" y2="70.0" stroke="#e5e7eb" stroke-width="1"/>
<text x="83" y="75.0" text-anchor="end" font-family="Arial" font-size="13" fill="#555">1217</text>
<line x1="95" y1="70" x2="95" y2="470" stroke="#333"/>
<line x1="95" y1="470" x2="860" y2="470" stroke="#333"/>
<text x="95.0" y="502" text-anchor="middle" font-family="Arial" font-size="15" fill="#333">100 threads</text>
<text x="860.0" y="502" text-anchor="middle" font-family="Arial" font-size="15" fill="#333">1000 threads</text>
<line x1="95" y1="528" x2="127" y2="528" stroke="#1f77b4" stroke-width="4"/>
<text x="137" y="533" font-family="Arial" font-size="14" fill="#333">Average</text>
<polyline points="95.0,137.2 860.0,131.0" fill="none" stroke="#1f77b4" stroke-width="4" stroke-linecap="round" stroke-linejoin="round"/>
<circle cx="95.0" cy="137.2" r="7" fill="#1f77b4"/>
<text x="95.0" y="123.2" text-anchor="middle" font-family="Arial" font-size="14" font-weight="700" fill="#1f77b4">1012 ms</text>
<circle cx="860.0" cy="131.0" r="7" fill="#1f77b4"/>
<text x="860.0" y="117.0" text-anchor="middle" font-family="Arial" font-size="14" font-weight="700" fill="#1f77b4">1031 ms</text>
</svg>